<?xml version="1.0" encoding="UTF-8"?>
<!DOCTYPE svg PUBLIC "-//W3C//DTD SVG 1.0//EN" "http://www.w3.org/TR/2001/REC-SVG-20010904/DTD/svg10.dtd">
<!-- Creator: CorelDRAW 2021 (64-Bit) -->
<svg xmlns="http://www.w3.org/2000/svg" xml:space="preserve" width="11.6929in" height="8.26772in" version="1.0" style="shape-rendering:geometricPrecision; text-rendering:geometricPrecision; image-rendering:optimizeQuality; fill-rule:evenodd; clip-rule:evenodd"
viewBox="0 0 11692.91 8267.72"
 xmlns:xlink="http://www.w3.org/1999/xlink"
 xmlns:xodm="http://www.corel.com/coreldraw/odm/2003">
 <defs>
  <style type="text/css">
   <![CDATA[
    .fil2 {fill:green;fill-rule:nonzero}
    .fil0 {fill:green;fill-rule:nonzero}
    .fil1 {fill:#F55E1E;fill-rule:nonzero}
   ]]>
  </style>
 </defs>
 <g id="Layer_x0020_1">
  <metadata id="CorelCorpID_0Corel-Layer"/>
  <g id="_1834868212048">
   <path class="fil0" d="M-155480.27 12958.34l-37893.35 0c-744.34,0 -1353.34,609 -1353.34,1353.34 0,744.33 609,1353.34 1353.34,1353.34l37893.35 -0.02c744.34,0 1353.34,-609 1353.34,-1353.34 0,-744.34 -609,-1353.34 -1353.34,-1353.34l0 0.02z"/>
   <path class="fil0" d="M-175780.29 -1928.32c-1488.67,0 -2706.68,1218 -2706.68,2706.68l0 9473.33 8120.01 -0.02 0 -9473.33c0,-1488.67 -1218,-2706.67 -2706.68,-2706.67l-2706.66 0.02z"/>
   <path class="fil0" d="M-187283.61 3485.01c-1488.67,0 -2706.68,1218 -2706.68,2706.68l0 4060 8120.01 -0.02 0 -4060c0,-1488.67 -1218,-2706.68 -2706.68,-2706.68l-2706.66 0.02z"/>
   <path class="fil0" d="M-169690.28 -4635l2706.66 0 0 14886.66 8120.01 0 0 -14886.66 2706.65 0c487.21,0 933.79,-257.13 1163.87,-676.66 243.59,-419.53 243.59,-933.79 0,-1353.34l-4736.67 -8295.93c-649.6,-1150.32 -1881.14,-1854.06 -3193.86,-1854.06 -1312.72,0 -2544.26,717.26 -3193.86,1854.06l-4736.67 8295.93c-243.59,419.53 -243.59,933.79 0,1353.34 243.59,419.55 690.2,676.66 1163.86,676.66l0.02 0z"/>
   <path class="fil1" d="M-183900.28 -3281.66c5968.19,0 10826.67,-4858.47 10826.67,-10826.67 0,-5968.2 -4858.47,-10826.67 -10826.67,-10826.67 -5968.2,0 -10826.67,4858.47 -10826.67,10826.67 0,5968.2 4858.47,10826.67 10826.67,10826.67zm906.73 -9473.35l-1799.94 0c-1745.81,0 -3153.26,-1421 -3153.26,-3153.26 0,-1583.39 1177.4,-2896.13 2706.68,-3112.66l0 -500.72c0,-744.34 609,-1353.34 1353.34,-1353.34 744.33,0 1353.34,609 1353.34,1353.34l0 446.61 1353.31 -0.02c744.34,0 1353.34,609 1353.34,1353.34 0,744.34 -609,1353.34 -1353.34,1353.34l-3613.41 0c-243.59,0 -446.61,203 -446.61,446.61 0,243.61 202.99,446.61 446.61,446.61l1799.94 -0.02c1745.81,0 3153.26,1421 3153.26,3153.26 0,1583.39 -1177.4,2896.13 -2706.68,3112.67l0 500.72c0,744.33 -609,1353.34 -1353.34,1353.34 -744.33,0 -1353.34,-609 -1353.34,-1353.34l0 -446.61 -1353.31 0.02c-744.34,0 -1353.34,-609 -1353.34,-1353.34 0,-744.34 609,-1353.34 1353.34,-1353.34l3613.41 0.02c243.59,0 446.61,-202.99 446.61,-446.61 0,-243.61 -202.99,-446.61 -446.61,-446.61z"/>
  </g>
  <g id="_1834868213968">
   <g>
    <g>
     <g>
      <circle class="fil2" cx="4110.64" cy="929.16" r="677.09"/>
     </g>
    </g>
    <path class="fil2" d="M5629.68 3900.89c-213.42,-448.67 -485.32,-1515.47 -946.15,-1930.25 -94.19,-84.77 -170.48,-134.87 -219.54,-134.87l-789.71 0.01c-50.52,0 -124.44,47.26 -213.65,127.36 -439.11,394.24 -884.33,1800.02 -1102.74,2070.86 -117.48,393.19 191.24,436.22 384.86,151.31l719.51 -1321.43 -218.04 4785.65c0.64,205.54 167.42,371.72 372.8,371.72 0.38,0 0.78,0 1.15,-0.02 205.9,-0.63 372.35,-168.05 371.71,-373.95l-0.01 -2970.36 159.49 0 0.22 2971.54c0.02,205.91 166.95,372.81 372.88,372.81 205.9,-0.01 372.81,-166.95 372.81,-372.87l-206.09 -4867.01 670.09 1501.59c239.77,278.11 436.74,-17.61 270.42,-382.08z"/>
   </g>
   <g>
    <g>
     <g>
      <circle class="fil2" cx="7779.79" cy="929.16" r="677.09"/>
     </g>
    </g>
    <path class="fil2" d="M9298.84 3900.89c-213.43,-448.67 -485.32,-1515.47 -946.15,-1930.25 -94.19,-84.77 -170.48,-134.87 -219.54,-134.87l-789.71 0.01c-50.52,0 -124.44,47.26 -213.65,127.36 -439.11,394.24 -884.33,1800.02 -1102.74,2070.86 -117.48,393.19 191.24,436.22 384.86,151.31l719.5 -1321.43 -218.04 4785.65c0.63,205.54 167.42,371.72 372.8,371.72 0.38,0 0.78,0 1.15,-0.02 205.91,-0.63 372.35,-168.05 371.71,-373.95l-0.01 -2970.36 159.49 0 0.22 2971.54c0.02,205.91 166.94,372.81 372.88,372.81 205.9,-0.01 372.81,-166.95 372.81,-372.87l-206.09 -4867.01 670.09 1501.59c239.77,278.11 436.74,-17.61 270.42,-382.08z"/>
   </g>
  </g>
 </g>
</svg>
