<svg width="57" height="24" viewBox="0 0 57 24" fill="none" xmlns="http://www.w3.org/2000/svg">
<path fill-rule="evenodd" clip-rule="evenodd" d="M41.8219 11.2882C41.6716 12.2752 40.9178 12.2752 40.1886 12.2752H39.7738L40.0648 10.4324C40.0823 10.3211 40.1784 10.239 40.2912 10.239H40.4814C40.9776 10.239 41.4464 10.239 41.6882 10.5217C41.8328 10.6909 41.8765 10.9417 41.8219 11.2882ZM41.5045 8.71313H38.7547C38.5667 8.71313 38.4067 8.84994 38.3774 9.03568L37.2656 16.0864C37.2436 16.2254 37.3511 16.3512 37.492 16.3512H38.9028C39.0344 16.3512 39.1465 16.2554 39.1669 16.1254L39.4822 14.1266C39.5115 13.9409 39.6716 13.8041 39.8595 13.8041H40.7297C42.5409 13.8041 43.5861 12.9275 43.8594 11.1903C43.9823 10.4305 43.8643 9.83352 43.5085 9.41557C43.1175 8.9561 42.4245 8.71313 41.5045 8.71313Z" fill="#2790C3"/>
<path fill-rule="evenodd" clip-rule="evenodd" d="M22.2091 11.2882C22.0588 12.2752 21.3049 12.2752 20.5759 12.2752H20.1611L20.452 10.4324C20.4696 10.3211 20.5657 10.239 20.6784 10.239H20.8686C21.3649 10.239 21.8337 10.239 22.0753 10.5217C22.2201 10.6909 22.2638 10.9417 22.2091 11.2882ZM21.8918 8.71313H19.142C18.954 8.71313 18.794 8.84994 18.7647 9.03568L17.6527 16.0864C17.6309 16.2254 17.7384 16.3512 17.8791 16.3512H19.1921C19.38 16.3512 19.5402 16.2144 19.5695 16.0288L19.8695 14.1266C19.8987 13.9409 20.0589 13.8041 20.2468 13.8041H21.117C22.9281 13.8041 23.9734 12.9275 24.2467 11.1903C24.3696 10.4305 24.2516 9.83352 23.8958 9.41557C23.5047 8.9561 22.8116 8.71313 21.8918 8.71313Z" fill="#27346A"/>
<path fill-rule="evenodd" clip-rule="evenodd" d="M28.2761 13.8196C28.149 14.572 27.5517 15.077 26.79 15.077C26.4081 15.077 26.1024 14.9542 25.9059 14.7216C25.7111 14.491 25.6378 14.1625 25.6995 13.7967C25.8181 13.0512 26.4249 12.5298 27.175 12.5298C27.549 12.5298 27.8525 12.6538 28.053 12.8885C28.2546 13.1249 28.3339 13.4556 28.2761 13.8196ZM30.1111 11.2569H28.7944C28.6816 11.2569 28.5856 11.3388 28.568 11.4504L28.5101 11.8186L28.418 11.6851C28.1329 11.2712 27.4975 11.1329 26.8629 11.1329C25.4082 11.1329 24.1656 12.2353 23.9237 13.7814C23.7978 14.5527 23.9765 15.2897 24.4139 15.8042C24.8156 16.2769 25.389 16.4736 26.0722 16.4736C27.2447 16.4736 27.895 15.7204 27.895 15.7204L27.8362 16.0863C27.8142 16.2255 27.9217 16.3514 28.0626 16.3514H29.2484C29.4363 16.3514 29.5964 16.2147 29.6257 16.029L30.3375 11.5217C30.3595 11.3826 30.252 11.2569 30.1111 11.2569Z" fill="#27346A"/>
<path fill-rule="evenodd" clip-rule="evenodd" d="M47.8872 13.8196C47.76 14.572 47.1629 15.077 46.4011 15.077C46.0191 15.077 45.7135 14.9542 45.5169 14.7216C45.3221 14.491 45.2488 14.1625 45.3106 13.7967C45.4291 13.0512 46.0359 12.5298 46.7862 12.5298C47.16 12.5298 47.4637 12.6538 47.664 12.8885C47.8657 13.1249 47.9449 13.4556 47.8872 13.8196ZM49.7221 11.2569H48.4055C48.2926 11.2569 48.1966 11.3388 48.1791 11.4504L48.1211 11.8186L48.0292 11.6851C47.7439 11.2712 47.1085 11.1329 46.4739 11.1329C45.0193 11.1329 43.7766 12.2353 43.5348 13.7814C43.409 14.5527 43.5877 15.2897 44.0249 15.8042C44.4268 16.2769 45.0001 16.4736 45.6832 16.4736C46.8558 16.4736 47.506 15.7204 47.506 15.7204L47.4473 16.0863C47.4252 16.2255 47.5327 16.3514 47.6737 16.3514H48.8594C49.0473 16.3514 49.2074 16.2147 49.2368 16.029L49.9485 11.5217C49.9705 11.3826 49.863 11.2569 49.7221 11.2569Z" fill="#2790C3"/>
<mask id="mask0_10916_9025" style="mask-type:alpha" maskUnits="userSpaceOnUse" x="3" y="6" width="51" height="13">
<path d="M3 18.1331H53.0002V6H3V18.1331Z" fill="white"/>
</mask>
<g mask="url(#mask0_10916_9025)">
<path fill-rule="evenodd" clip-rule="evenodd" d="M37.1235 11.2568H35.8001C35.6736 11.2568 35.5552 11.3196 35.4841 11.4242L33.6586 14.113L32.8848 11.5293C32.8365 11.3676 32.6877 11.2568 32.5189 11.2568H31.218C31.0609 11.2568 30.9503 11.4113 31.001 11.5599L32.4582 15.8373L31.0876 17.7714C30.9799 17.9231 31.0886 18.1331 31.2746 18.1331H32.5968C32.7221 18.1331 32.8393 18.0717 32.9108 17.9686L37.312 11.6166C37.4173 11.4646 37.3085 11.2568 37.1235 11.2568Z" fill="#27346A"/>
<path fill-rule="evenodd" clip-rule="evenodd" d="M51.2749 8.90679L50.1464 16.0864C50.1245 16.2255 50.232 16.3512 50.3728 16.3512H51.5079C51.6958 16.3512 51.8559 16.2144 51.8852 16.0288L52.9979 8.97809C53.0199 8.83894 52.9124 8.71313 52.7715 8.71313H51.5013C51.3885 8.71313 51.2925 8.79532 51.2749 8.90679Z" fill="#2790C3"/>
<path fill-rule="evenodd" clip-rule="evenodd" d="M8.20275 17.6342L8.57239 15.2903L8.59624 15.1605C8.61403 15.0475 8.67187 14.9442 8.75899 14.8698C8.84612 14.7954 8.95722 14.7544 9.07178 14.7544H9.36528C9.85454 14.7544 10.304 14.7021 10.7013 14.599C11.1252 14.4892 11.5023 14.318 11.8218 14.0907C12.1607 13.8498 12.4453 13.5382 12.6679 13.165C12.9027 12.7713 13.0751 12.2972 13.1804 11.7562C13.2734 11.2784 13.2908 10.8507 13.2324 10.4848C13.1705 10.0982 13.0216 9.76836 12.7898 9.50414C12.6493 9.3441 12.4695 9.20544 12.2555 9.092L12.2504 9.08928L12.2503 9.0831C12.3251 8.6062 12.3222 8.20839 12.2418 7.86595C12.1609 7.52276 11.9973 7.21393 11.7411 6.92203C11.2104 6.31723 10.2449 6.0105 8.87182 6.0105H5.10074C4.97469 6.0105 4.85234 6.05561 4.75644 6.13754C4.66054 6.21947 4.59702 6.33329 4.57725 6.45786L3.00703 16.4152C2.99269 16.506 3.01877 16.5983 3.07858 16.668C3.13839 16.7381 3.22539 16.7783 3.31734 16.7783H5.65686L5.65475 16.7894L5.4941 17.8082C5.48174 17.8874 5.50448 17.9677 5.55651 18.0285C5.60854 18.0895 5.68429 18.1246 5.76437 18.1246H7.7266C7.83671 18.1246 7.94336 18.0851 8.02702 18.0136C8.11069 17.942 8.1663 17.8428 8.18348 17.7342L8.20275 17.6342Z" fill="#27346A"/>
<path fill-rule="evenodd" clip-rule="evenodd" d="M6.85629 9.09528C6.88113 8.93746 6.98234 8.80832 7.11865 8.74295C7.18069 8.71329 7.2499 8.69673 7.32244 8.69673H10.2784C10.6286 8.69673 10.9551 8.71971 11.2537 8.76779C11.339 8.7815 11.4219 8.79732 11.5026 8.81524C11.5833 8.83316 11.6615 8.85306 11.7373 8.8753C11.7752 8.8863 11.8124 8.89792 11.8491 8.91015C11.9957 8.95884 12.1321 9.01618 12.2577 9.08267C12.4057 8.13888 12.2567 7.49663 11.7462 6.91493C11.1841 6.27453 10.1688 6.00018 8.86968 6.00018H5.09859C4.83314 6.00018 4.60711 6.19334 4.56571 6.45558L2.99549 16.4129C2.96447 16.6094 3.11635 16.787 3.31519 16.787H5.64322L6.85629 9.09528Z" fill="#27346A"/>
</g>
<path fill-rule="evenodd" clip-rule="evenodd" d="M12.2586 9.08252C12.2473 9.15457 12.2349 9.22785 12.22 9.30336C11.7229 11.8567 10.0214 12.7394 7.84834 12.7394H6.7418C6.47634 12.7394 6.25217 12.9327 6.21077 13.1949L5.48349 17.8059C5.45643 17.9777 5.58928 18.1331 5.76316 18.1331H7.7255C7.95771 18.1331 8.15544 17.9642 8.19165 17.7347L8.21093 17.635L8.58056 15.2909L8.60441 15.1614C8.64062 14.9319 8.83835 14.7629 9.07056 14.7629H9.36407C11.2651 14.7629 12.7537 13.9906 13.1887 11.7569C13.3703 10.8237 13.2764 10.0446 12.7958 9.49689C12.6505 9.33129 12.4695 9.19424 12.2586 9.08252Z" fill="#2790C3"/>
<path fill-rule="evenodd" clip-rule="evenodd" d="M11.7386 8.87517C11.6628 8.85292 11.5846 8.83303 11.5039 8.81511C11.4232 8.79719 11.3403 8.78137 11.255 8.76765C10.9565 8.71958 10.63 8.69659 10.2797 8.69659H7.32378C7.25124 8.69659 7.18204 8.71315 7.12 8.74281C6.98369 8.80819 6.88248 8.93733 6.85764 9.09514L6.22935 13.0787L6.21118 13.195C6.25258 12.9327 6.47676 12.7394 6.74221 12.7394H7.84876C10.0218 12.7394 11.7233 11.8567 12.2204 9.30338C12.2353 9.22787 12.2478 9.15459 12.259 9.08254C12.1334 9.01605 11.997 8.95871 11.8504 8.91002C11.8137 8.89778 11.7765 8.88617 11.7386 8.87517Z" fill="#1F264F"/>
<rect x="0.5" y="0.5" width="56" height="23" rx="1.5" stroke="#062A78"/>
</svg>
