<?xml version="1.0" encoding="UTF-8"?>
<!DOCTYPE svg PUBLIC "-//W3C//DTD SVG 1.0//EN" "http://www.w3.org/TR/2001/REC-SVG-20010904/DTD/svg10.dtd">
<!-- Creator: CorelDRAW 2021 (64-Bit) -->
<svg xmlns="http://www.w3.org/2000/svg" xml:space="preserve" width="11.6929in" height="8.26772in" version="1.0" style="shape-rendering:geometricPrecision; text-rendering:geometricPrecision; image-rendering:optimizeQuality; fill-rule:evenodd; clip-rule:evenodd"
viewBox="0 0 11692.91 8267.72"
 xmlns:xlink="http://www.w3.org/1999/xlink"
 xmlns:xodm="http://www.corel.com/coreldraw/odm/2003">
 <defs>
  <style type="text/css">
   <![CDATA[
    .fil0 {fill:green;fill-rule:nonzero}
    .fil1 {fill:#F55E1E;fill-rule:nonzero}
   ]]>
  </style>
 </defs>
 <g id="Layer_x0020_1">
  <metadata id="CorelCorpID_0Corel-Layer"/>
  <g id="_2836082658960">
   <path class="fil0" d="M-155480.27 12958.34l-37893.35 0c-744.34,0 -1353.34,609 -1353.34,1353.34 0,744.33 609,1353.34 1353.34,1353.34l37893.35 -0.02c744.34,0 1353.34,-609 1353.34,-1353.34 0,-744.34 -609,-1353.34 -1353.34,-1353.34l0 0.02z"/>
   <path class="fil0" d="M-175780.29 -1928.32c-1488.67,0 -2706.68,1218 -2706.68,2706.68l0 9473.33 8120.01 -0.02 0 -9473.33c0,-1488.67 -1218,-2706.67 -2706.68,-2706.67l-2706.66 0.02z"/>
   <path class="fil0" d="M-187283.61 3485.01c-1488.67,0 -2706.68,1218 -2706.68,2706.68l0 4060 8120.01 -0.02 0 -4060c0,-1488.67 -1218,-2706.68 -2706.68,-2706.68l-2706.66 0.02z"/>
   <path class="fil0" d="M-169690.28 -4635l2706.66 0 0 14886.66 8120.01 0 0 -14886.66 2706.65 0c487.21,0 933.79,-257.13 1163.87,-676.66 243.59,-419.53 243.59,-933.79 0,-1353.34l-4736.67 -8295.93c-649.6,-1150.32 -1881.14,-1854.06 -3193.86,-1854.06 -1312.72,0 -2544.26,717.26 -3193.86,1854.06l-4736.67 8295.93c-243.59,419.53 -243.59,933.79 0,1353.34 243.59,419.55 690.2,676.66 1163.86,676.66l0.02 0z"/>
   <path class="fil1" d="M-183900.28 -3281.66c5968.19,0 10826.67,-4858.47 10826.67,-10826.67 0,-5968.2 -4858.47,-10826.67 -10826.67,-10826.67 -5968.2,0 -10826.67,4858.47 -10826.67,10826.67 0,5968.2 4858.47,10826.67 10826.67,10826.67zm906.73 -9473.35l-1799.94 0c-1745.81,0 -3153.26,-1421 -3153.26,-3153.26 0,-1583.39 1177.4,-2896.13 2706.68,-3112.66l0 -500.72c0,-744.34 609,-1353.34 1353.34,-1353.34 744.33,0 1353.34,609 1353.34,1353.34l0 446.61 1353.31 -0.02c744.34,0 1353.34,609 1353.34,1353.34 0,744.34 -609,1353.34 -1353.34,1353.34l-3613.41 0c-243.59,0 -446.61,203 -446.61,446.61 0,243.61 202.99,446.61 446.61,446.61l1799.94 -0.02c1745.81,0 3153.26,1421 3153.26,3153.26 0,1583.39 -1177.4,2896.13 -2706.68,3112.67l0 500.72c0,744.33 -609,1353.34 -1353.34,1353.34 -744.33,0 -1353.34,-609 -1353.34,-1353.34l0 -446.61 -1353.31 0.02c-744.34,0 -1353.34,-609 -1353.34,-1353.34 0,-744.34 609,-1353.34 1353.34,-1353.34l3613.41 0.02c243.59,0 446.61,-202.99 446.61,-446.61 0,-243.61 -202.99,-446.61 -446.61,-446.61z"/>
  </g>
  <g id="_2836082658912">
   <path class="fil0" d="M8086.57 6216.96l-4480.65 0c-88.01,0 -160.02,72.01 -160.02,160.02 0,88.01 72.01,160.02 160.02,160.02l4480.65 -0c88.01,0 160.02,-72.01 160.02,-160.02 0,-88.01 -72.01,-160.02 -160.02,-160.02l0 0z"/>
   <path class="fil0" d="M5686.22 4456.71c-176.03,0 -320.05,144.02 -320.05,320.05l0 1120.16 960.14 -0 0 -1120.16c0,-176.02 -144.02,-320.05 -320.05,-320.05l-320.04 0z"/>
   <path class="fil0" d="M4326.03 5096.8c-176.03,0 -320.05,144.02 -320.05,320.05l0 480.07 960.14 -0 0 -480.07c0,-176.03 -144.02,-320.05 -320.05,-320.05l-320.04 0z"/>
   <path class="fil0" d="M6406.33 4136.67l320.04 0 0 1760.25 960.14 0 0 -1760.25 320.05 0c57.61,0 110.41,-30.41 137.62,-80.01 28.8,-49.61 28.8,-110.41 0,-160.02l-560.08 -980.94c-76.81,-136.02 -222.43,-219.23 -377.65,-219.23 -155.22,0 -300.84,84.81 -377.65,219.23l-560.08 980.94c-28.8,49.61 -28.8,110.42 0,160.02 28.8,49.61 81.61,80.01 137.62,80.01l0 0z"/>
   <path class="fil1" d="M4726.09 4296.69c705.7,0 1280.19,-574.48 1280.19,-1280.19 0,-705.7 -574.48,-1280.18 -1280.19,-1280.18 -705.7,0 -1280.18,574.48 -1280.18,1280.18 0,705.7 574.48,1280.19 1280.18,1280.19zm107.22 -1120.16l-212.83 0c-206.43,0 -372.85,-168.02 -372.85,-372.85 0,-187.22 139.22,-342.45 320.05,-368.05l0 -59.21c0,-88.01 72.01,-160.02 160.02,-160.02 88.01,0 160.02,72.01 160.02,160.02l0 52.81 160.02 0c88.02,0 160.02,72.01 160.02,160.02 0,88.01 -72.01,160.02 -160.02,160.02l-427.26 0c-28.8,0 -52.81,24 -52.81,52.81 0,28.81 24,52.81 52.81,52.81l212.83 0c206.43,0 372.85,168.02 372.85,372.85 0,187.23 -139.22,342.45 -320.05,368.06l0 59.2c0,88.02 -72.01,160.02 -160.02,160.02 -88.02,0 -160.02,-72.01 -160.02,-160.02l0 -52.81 -160.02 0c-88.01,0 -160.02,-72.01 -160.02,-160.02 0,-88.02 72.01,-160.02 160.02,-160.02l427.26 0c28.8,0 52.81,-24 52.81,-52.81 0,-28.81 -24,-52.81 -52.81,-52.81z"/>
  </g>
 </g>
</svg>
