<?xml version="1.0" encoding="UTF-8"?>
<!DOCTYPE svg PUBLIC "-//W3C//DTD SVG 1.0//EN" "http://www.w3.org/TR/2001/REC-SVG-20010904/DTD/svg10.dtd">
<!-- Creator: CorelDRAW 2021 (64-Bit) -->
<svg xmlns="http://www.w3.org/2000/svg" xml:space="preserve" width="11.6929in" height="8.26772in" version="1.0" style="shape-rendering:geometricPrecision; text-rendering:geometricPrecision; image-rendering:optimizeQuality; fill-rule:evenodd; clip-rule:evenodd"
viewBox="0 0 11692.91 8267.72"
 xmlns:xlink="http://www.w3.org/1999/xlink"
 xmlns:xodm="http://www.corel.com/coreldraw/odm/2003">
 <defs>
  <style type="text/css">
   <![CDATA[
    .fil8 {fill:green}
    .fil5 {fill:aqua}
    .fil2 {fill:#4D4D4D}
    .fil7 {fill:#D9F2F2}
    .fil3 {fill:#F1F1F1}
    .fil4 {fill:#F3A766}
    .fil6 {fill:#F55E1E}
    .fil0 {fill:green;fill-rule:nonzero}
    .fil1 {fill:#F55E1E;fill-rule:nonzero}
   ]]>
  </style>
 </defs>
 <g id="Layer_x0020_1">
  <metadata id="CorelCorpID_0Corel-Layer"/>
  <g id="_2836089459648">
   <path class="fil0" d="M-155480.27 12958.34l-37893.35 0c-744.34,0 -1353.34,609 -1353.34,1353.34 0,744.33 609,1353.34 1353.34,1353.34l37893.35 -0.02c744.34,0 1353.34,-609 1353.34,-1353.34 0,-744.34 -609,-1353.34 -1353.34,-1353.34l0 0.02z"/>
   <path class="fil0" d="M-175780.29 -1928.32c-1488.67,0 -2706.68,1218 -2706.68,2706.68l0 9473.33 8120.01 -0.02 0 -9473.33c0,-1488.67 -1218,-2706.67 -2706.68,-2706.67l-2706.66 0.02z"/>
   <path class="fil0" d="M-187283.61 3485.01c-1488.67,0 -2706.68,1218 -2706.68,2706.68l0 4060 8120.01 -0.02 0 -4060c0,-1488.67 -1218,-2706.68 -2706.68,-2706.68l-2706.66 0.02z"/>
   <path class="fil0" d="M-169690.28 -4635l2706.66 0 0 14886.66 8120.01 0 0 -14886.66 2706.65 0c487.21,0 933.79,-257.13 1163.87,-676.66 243.59,-419.53 243.59,-933.79 0,-1353.34l-4736.67 -8295.93c-649.6,-1150.32 -1881.14,-1854.06 -3193.86,-1854.06 -1312.72,0 -2544.26,717.26 -3193.86,1854.06l-4736.67 8295.93c-243.59,419.53 -243.59,933.79 0,1353.34 243.59,419.55 690.2,676.66 1163.86,676.66l0.02 0z"/>
   <path class="fil1" d="M-183900.28 -3281.66c5968.19,0 10826.67,-4858.47 10826.67,-10826.67 0,-5968.2 -4858.47,-10826.67 -10826.67,-10826.67 -5968.2,0 -10826.67,4858.47 -10826.67,10826.67 0,5968.2 4858.47,10826.67 10826.67,10826.67zm906.73 -9473.35l-1799.94 0c-1745.81,0 -3153.26,-1421 -3153.26,-3153.26 0,-1583.39 1177.4,-2896.13 2706.68,-3112.66l0 -500.72c0,-744.34 609,-1353.34 1353.34,-1353.34 744.33,0 1353.34,609 1353.34,1353.34l0 446.61 1353.31 -0.02c744.34,0 1353.34,609 1353.34,1353.34 0,744.34 -609,1353.34 -1353.34,1353.34l-3613.41 0c-243.59,0 -446.61,203 -446.61,446.61 0,243.61 202.99,446.61 446.61,446.61l1799.94 -0.02c1745.81,0 3153.26,1421 3153.26,3153.26 0,1583.39 -1177.4,2896.13 -2706.68,3112.67l0 500.72c0,744.33 -609,1353.34 -1353.34,1353.34 -744.33,0 -1353.34,-609 -1353.34,-1353.34l0 -446.61 -1353.31 0.02c-744.34,0 -1353.34,-609 -1353.34,-1353.34 0,-744.34 609,-1353.34 1353.34,-1353.34l3613.41 0.02c243.59,0 446.61,-202.99 446.61,-446.61 0,-243.61 -202.99,-446.61 -446.61,-446.61z"/>
  </g>
  <g id="_2836089457440">
   <path class="fil2" d="M6765.72 4448.54l-3063.44 0c-43.06,0 -77.51,-34.45 -77.51,-77.51l0 -2197.31 -230.07 -0 0 2595.93 4895.35 0 0 -2595.93 -545.02 0 0 1162.63c190.7,135.33 316.19,358.02 316.19,610.23 0,686.5 -843.98,995.31 -1295.5,501.96zm259.59 2352.32l-2365.86 0c-137.79,0 -254.67,-116.88 -254.67,-255.9 0,-137.79 116.88,-254.67 254.67,-254.67l610.22 0c140.25,-279.28 141.48,-520.41 3.69,-750.48l-1952.48 0c-46.75,0 -77.51,-36.91 -77.51,-81.2l0 -3358.71c0,-43.06 34.45,-77.51 77.51,-77.51l303.88 0 0 -472.43c0,-43.06 34.45,-77.51 77.51,-77.51l3964.02 0c43.06,0 78.74,34.45 78.74,77.51l0 472.43 618.84 0c43.06,0 78.74,34.45 78.74,77.51l0 2721.41c8.61,52.9 7.38,574.55 3.69,645.91 -3.69,38.14 -39.37,72.59 -82.43,72.59l-1942.64 0c-134.1,230.07 -132.87,471.2 3.69,750.48l600.39 0c142.71,0 255.9,111.96 255.9,254.67 0,139.02 -113.19,255.9 -255.9,255.9l0 -0zm-1588.31 -510.57l818.15 0c-115.65,-268.2 -116.88,-515.49 -4.92,-750.48l-805.84 0c110.73,232.53 107.04,479.81 -7.38,750.48zm-777.55 151.33c-135.33,0 -135.33,207.92 0,207.92l2365.86 -0c136.56,0 136.56,-207.92 0,-207.92l-2365.86 0zm-125.49 -1213.07l-228.83 0c-100.89,0 -100.89,-156.25 0,-156.25l228.83 0c104.57,0 99.65,156.25 0,156.25l0 -0zm-558.55 0l-230.07 0c-100.89,0 -100.89,-156.25 0,-156.25l230.07 0c100.89,0 100.89,156.25 0,156.25l0 -0zm-580.7 -303.88l0 460.13 4895.35 0 0 -460.13 -4895.35 0zm3713.03 -658.21l-268.2 -285.43c-67.67,-70.13 41.83,-177.16 111.96,-104.57l216.53 230.07 515.49 -485.97c70.13,-67.67 177.16,43.06 104.57,113.19l-559.78 521.65c-34.45,40.6 -78.74,52.9 -120.57,11.07l0 0zm530.26 -815.69c-8.61,-2.46 -15.99,-7.38 -23.37,-13.53 -87.35,-51.67 -189.46,-79.97 -298.96,-79.97 -324.8,0 -593,263.28 -593,593 0,323.57 265.74,593 593,593 599.15,0 809.54,-777.55 322.34,-1092.5l-0 -0zm-49.21 -198.08l0 -1053.13 -3812.69 0 0 2092.73 2880.13 0c-318.65,-605.31 291.58,-1293.04 932.56,-1039.6l0 -0zm-1126.95 407.23l-593 0c-100.89,0 -100.89,-156.25 0,-156.25l593 0c100.89,0 100.89,156.25 0,156.25zm221.45 -259.59l-814.45 0c-100.89,0 -100.89,-156.25 0,-156.25l814.45 0c104.57,0 99.65,156.25 0,156.25zm645.91 -269.44l-1460.36 0c-100.89,0 -100.89,-155.02 0,-155.02l1464.05 0c104.57,0 100.89,155.02 -3.69,155.02l-0 0zm0 -259.59l-1460.36 0c-100.89,0 -100.89,-156.25 0,-156.25l1464.05 0c104.57,0 100.89,156.25 -3.69,156.25l-0 0zm0 -259.59l-1460.36 0c-100.89,0 -100.89,-156.25 0,-156.25l1464.05 0c104.57,0 100.89,156.25 -3.69,156.25l-0 0zm-1802.38 1398.85l-1403.77 0c-44.29,0 -78.74,-34.45 -78.74,-77.51l0 -1395.16c0,-43.06 34.45,-77.51 78.74,-77.51l1398.85 0c43.06,0 77.51,34.45 77.51,77.51l0 1398.85c0,44.29 -34.45,73.82 -72.59,73.82zm-1326.26 -151.33l177.16 0c-65.2,-99.65 77.51,-498.27 442.91,-498.27 366.63,0 497.04,403.54 440.44,498.27l187.01 0 0 -1247.52 -1247.52 0 0 1247.52zm307.57 0l628.68 0c-8.61,-12.3 -13.53,-27.07 -13.53,-43.06 0,-164.86 -134.1,-303.88 -298.96,-303.88 -164.86,0 -302.65,135.33 -302.65,303.88 0,15.99 -4.92,30.76 -13.53,43.06l-0 0zm316.19 -501.96c-194.39,0 -355.56,-156.25 -355.56,-351.87 0,-194.39 161.17,-354.33 355.56,-354.33 195.62,0 350.63,159.94 350.63,354.33 0,190.7 -155.02,351.87 -350.63,351.87zm0 -554.86c-265.74,0 -269.43,402.31 0,402.31 108.27,0 199.31,-91.04 199.31,-199.31 0,-111.96 -91.04,-203 -199.31,-203zm8.61 -857.52c-65.2,0 -190.7,20.91 -190.7,-78.74 0,-98.43 125.49,-77.51 190.7,-77.51 104.57,0 99.65,156.25 0,156.25zm-350.63 0c-65.2,0 -190.7,20.91 -190.7,-78.74 0,-98.43 125.49,-77.51 190.7,-77.51 100.89,0 100.89,156.25 0,156.25zm-346.94 0c-65.2,0 -190.7,20.91 -190.7,-78.74 0,-98.43 125.49,-77.51 190.7,-77.51 104.57,0 99.65,156.25 0,156.25zm975.63 103.34l246.06 -424.45 -1580.93 0 0 424.45 1334.87 -0zm420.76 -424.45l-247.29 424.45 2304.35 -0 0 -424.45 -2057.06 0z"/>
   <path class="fil3" d="M3776.09 4292.3l2880.13 0c-318.65,-605.31 291.58,-1293.04 932.56,-1039.6l0 -1053.13 -3812.69 -0 0 2092.74zm2092.74 -632.37c-100.89,0 -100.89,-156.25 0,-156.25l593 0c100.89,0 100.89,156.25 0,156.25l-593 0zm0 -259.59c-100.89,0 -100.89,-156.25 0,-156.25l814.45 0c104.57,0 99.65,156.25 0,156.25l-814.45 0zm0 -269.44c-100.89,0 -100.89,-155.02 0,-155.02l1464.05 0c104.57,0 100.89,155.02 -3.69,155.02l-1460.36 0zm1460.36 -259.59l-1460.36 0c-100.89,0 -100.89,-156.25 0,-156.25l1464.05 0c104.57,0 100.89,156.25 -3.69,156.25l-0 0zm0 -259.59l-1460.36 0c-100.89,0 -100.89,-156.25 0,-156.25l1464.05 0c104.57,0 100.89,156.25 -3.69,156.25l-0 0zm-1802.38 1398.85l-1403.77 0c-44.29,0 -78.74,-34.45 -78.74,-77.51l0 -1395.16c0,-43.06 34.45,-77.51 78.74,-77.51l1398.85 0c43.06,0 77.51,34.45 77.51,77.51l0 1398.85c0,44.29 -34.45,73.82 -72.59,73.82z"/>
   <path class="fil3" d="M5448.07 3859.23l0 -1247.52 -1247.52 0 0 1247.52 177.16 0c-65.2,-99.65 77.51,-498.27 442.91,-498.27 366.63,0 497.04,403.54 440.44,498.27l187.01 0zm-273.13 -853.82c0,190.7 -155.02,351.87 -350.63,351.87 -194.39,0 -355.56,-156.25 -355.56,-351.87 0,-194.39 161.17,-354.33 355.56,-354.33 195.62,0 350.63,159.94 350.63,354.33z"/>
   <path class="fil4" d="M4824.31 3204.71c108.27,0 199.31,-91.04 199.31,-199.31 0,-111.96 -91.04,-203 -199.31,-203 -265.74,0 -269.43,402.31 0,402.31z"/>
   <path class="fil5" d="M4508.12 3859.23l628.68 0c-8.61,-12.3 -13.53,-27.07 -13.53,-43.06 0,-164.86 -134.1,-303.88 -298.96,-303.88 -164.86,0 -302.65,135.33 -302.65,303.88 0,15.99 -4.92,30.76 -13.53,43.06l-0 0z"/>
   <polygon class="fil6" points="5284.44,2048.23 7588.78,2048.23 7588.78,1623.78 5531.73,1623.78 "/>
   <path class="fil6" d="M3776.09 2048.23l1334.87 0 246.06 -424.45 -1580.93 0 0 424.45zm1056.83 -259.59c104.57,0 99.65,156.25 0,156.25 -65.2,0 -190.7,20.91 -190.7,-78.74 0,-98.43 125.49,-77.51 190.7,-77.51zm-350.63 0c100.89,0 100.89,156.25 0,156.25 -65.2,0 -190.7,20.91 -190.7,-78.74 0,-98.43 125.49,-77.51 190.7,-77.51zm-346.94 0c104.57,0 99.65,156.25 0,156.25 -65.2,0 -190.7,20.91 -190.7,-78.74 0,-98.43 125.49,-77.51 190.7,-77.51z"/>
   <path class="fil6" d="M7168.02 4106.52l515.49 -485.97c70.13,-67.67 177.16,43.06 104.57,113.19l-559.78 521.65c-34.45,40.6 -78.74,52.9 -120.57,11.07l-268.2 -285.43c-67.67,-70.13 41.83,-177.16 111.96,-104.57l216.54 230.07zm147.63 436.76c599.15,0 809.54,-777.55 322.34,-1092.5 -8.61,-2.46 -15.99,-7.38 -23.37,-13.53 -87.35,-51.67 -189.46,-79.97 -298.96,-79.97 -324.8,0 -593,263.28 -593,593 0,323.57 265.74,593 593,593l-0 -0z"/>
   <path class="fil7" d="M8290.05 4769.65l0 -2595.93 -545.02 0 0 1162.63c190.7,135.33 316.19,358.02 316.19,610.23 0,686.5 -843.98,995.31 -1295.5,501.96l-3063.44 0c-43.06,0 -77.51,-34.45 -77.51,-77.51l0 -2197.31 -230.07 -0 0 2595.93 4895.35 0z"/>
   <path class="fil8" d="M3394.7 5384.8l4895.35 0 0 -460.13 -4895.35 0 0 460.13zm1139.25 -312.49c104.57,0 99.65,156.25 0,156.25l-228.83 -0c-100.89,0 -100.89,-156.25 0,-156.25l228.83 0zm-558.55 0c100.89,0 100.89,156.25 0,156.25l-230.07 -0c-100.89,0 -100.89,-156.25 0,-156.25l230.07 0z"/>
   <path class="fil8" d="M5437 6290.3l818.15 0c-115.65,-268.2 -116.88,-515.49 -4.92,-750.48l-805.84 0c110.73,232.53 107.04,479.81 -7.38,750.48z"/>
   <path class="fil8" d="M4659.45 6649.54l2365.86 0c136.56,0 136.56,-207.92 0,-207.92l-2365.86 0c-135.33,0 -135.33,207.92 0,207.92l0 -0z"/>
  </g>
 </g>
</svg>
