<?xml version="1.0" encoding="UTF-8"?>
<!DOCTYPE svg PUBLIC "-//W3C//DTD SVG 1.0//EN" "http://www.w3.org/TR/2001/REC-SVG-20010904/DTD/svg10.dtd">
<!-- Creator: CorelDRAW 2021 (64-Bit) -->
<svg xmlns="http://www.w3.org/2000/svg" xml:space="preserve" width="11.6929in" height="8.26772in" version="1.0" style="shape-rendering:geometricPrecision; text-rendering:geometricPrecision; image-rendering:optimizeQuality; fill-rule:evenodd; clip-rule:evenodd"
viewBox="0 0 11692.91 8267.72"
 xmlns:xlink="http://www.w3.org/1999/xlink"
 xmlns:xodm="http://www.corel.com/coreldraw/odm/2003">
 <defs>
  <style type="text/css">
   <![CDATA[
    .fil0 {fill:green;fill-rule:nonzero}
    .fil5 {fill:#4D4D4D;fill-rule:nonzero}
    .fil3 {fill:#B3B6C3;fill-rule:nonzero}
    .fil2 {fill:#EDF2FA;fill-rule:nonzero}
    .fil1 {fill:#F55E1E;fill-rule:nonzero}
    .fil4 {fill:#FF5D5D;fill-rule:nonzero}
   ]]>
  </style>
 </defs>
 <g id="Layer_x0020_1">
  <metadata id="CorelCorpID_0Corel-Layer"/>
  <g id="_2836184490112">
   <path class="fil0" d="M-155480.27 12958.34l-37893.35 0c-744.34,0 -1353.34,609 -1353.34,1353.34 0,744.33 609,1353.34 1353.34,1353.34l37893.35 -0.02c744.34,0 1353.34,-609 1353.34,-1353.34 0,-744.34 -609,-1353.34 -1353.34,-1353.34l0 0.02z"/>
   <path class="fil0" d="M-175780.29 -1928.32c-1488.67,0 -2706.68,1218 -2706.68,2706.68l0 9473.33 8120.01 -0.02 0 -9473.33c0,-1488.67 -1218,-2706.67 -2706.68,-2706.67l-2706.66 0.02z"/>
   <path class="fil0" d="M-187283.61 3485.01c-1488.67,0 -2706.68,1218 -2706.68,2706.68l0 4060 8120.01 -0.02 0 -4060c0,-1488.67 -1218,-2706.68 -2706.68,-2706.68l-2706.66 0.02z"/>
   <path class="fil0" d="M-169690.28 -4635l2706.66 0 0 14886.66 8120.01 0 0 -14886.66 2706.65 0c487.21,0 933.79,-257.13 1163.87,-676.66 243.59,-419.53 243.59,-933.79 0,-1353.34l-4736.67 -8295.93c-649.6,-1150.32 -1881.14,-1854.06 -3193.86,-1854.06 -1312.72,0 -2544.26,717.26 -3193.86,1854.06l-4736.67 8295.93c-243.59,419.53 -243.59,933.79 0,1353.34 243.59,419.55 690.2,676.66 1163.86,676.66l0.02 0z"/>
   <path class="fil1" d="M-183900.28 -3281.66c5968.19,0 10826.67,-4858.47 10826.67,-10826.67 0,-5968.2 -4858.47,-10826.67 -10826.67,-10826.67 -5968.2,0 -10826.67,4858.47 -10826.67,10826.67 0,5968.2 4858.47,10826.67 10826.67,10826.67zm906.73 -9473.35l-1799.94 0c-1745.81,0 -3153.26,-1421 -3153.26,-3153.26 0,-1583.39 1177.4,-2896.13 2706.68,-3112.66l0 -500.72c0,-744.34 609,-1353.34 1353.34,-1353.34 744.33,0 1353.34,609 1353.34,1353.34l0 446.61 1353.31 -0.02c744.34,0 1353.34,609 1353.34,1353.34 0,744.34 -609,1353.34 -1353.34,1353.34l-3613.41 0c-243.59,0 -446.61,203 -446.61,446.61 0,243.61 202.99,446.61 446.61,446.61l1799.94 -0.02c1745.81,0 3153.26,1421 3153.26,3153.26 0,1583.39 -1177.4,2896.13 -2706.68,3112.67l0 500.72c0,744.33 -609,1353.34 -1353.34,1353.34 -744.33,0 -1353.34,-609 -1353.34,-1353.34l0 -446.61 -1353.31 0.02c-744.34,0 -1353.34,-609 -1353.34,-1353.34 0,-744.34 609,-1353.34 1353.34,-1353.34l3613.41 0.02c243.59,0 446.61,-202.99 446.61,-446.61 0,-243.61 -202.99,-446.61 -446.61,-446.61z"/>
  </g>
  <g id="_2834929662768">
   <g>
    <path class="fil0" d="M4116.13 2235.53l-309.65 0c-218.74,0 -396.07,177.33 -396.07,396.07l0 3544.83c0,218.74 177.33,396.07 396.07,396.07l3010.13 0c218.74,0 396.07,-177.33 396.07,-396.07l0 -3544.83c0,-218.74 -177.33,-396.07 -396.07,-396.07l-304.42 0 -2396.07 0zm0 0l0 0 0 0z"/>
   </g>
   <g id="_2836184491504">
    <polygon class="fil2" points="4202.56,2572.19 3885.56,2572.19 3885.56,6085.06 6737.41,6085.06 6737.41,2572.19 6420.55,2572.19 "/>
    <path class="fil2" d="M5751.43 2671.2l669.12 0 0 -455.48c0,-109.38 -88.66,-198.04 -198.04,-198.04l-594.11 0c0,-174.99 -141.86,-316.86 -316.86,-316.86 -174.99,0 -316.86,141.86 -316.86,316.86l-594.1 0c-109.38,0 -198.04,88.66 -198.04,198.04l0 455.48 729.1 0 819.77 0z"/>
   </g>
   <path class="fil1" d="M8105.09 1700.83l-339.14 0c-97.75,0 -176.99,79.24 -176.99,176.99l0 3862.93 346.56 831.75 346.56 -831.75 0 -3862.93c0,-97.75 -79.24,-176.99 -176.99,-176.99z"/>
   <polygon class="fil3" points="8282.08,5740.75 7588.96,5740.75 7935.52,6572.5 "/>
   <rect class="fil2" x="7588.96" y="2334.55" width="693.12" height="366.36"/>
   <path class="fil4" d="M8105.09 1700.83l-339.14 0c-97.75,0 -176.99,79.24 -176.99,176.99l0 456.72 693.12 0 0 -456.72c0,-97.75 -79.24,-176.99 -176.99,-176.99z"/>
   <path class="fil5" d="M6816.62 2136.51l-304.42 0c-1.15,0 -2.26,0.13 -3.4,0.17 -34.7,-125.54 -149.86,-218.01 -286.29,-218.01l-507 0c-44.53,-181.67 -208.76,-316.85 -403.96,-316.85 -195.2,0 -359.44,135.18 -403.96,316.86l-507 -0c-136.36,0 -251.48,92.39 -286.24,217.84l-307.87 0c-272.99,0 -495.09,222.09 -495.09,495.09l0 3544.83c0,272.99 222.1,495.09 495.09,495.09l3010.13 0c272.99,0 495.09,-222.1 495.09,-495.09l0 -3544.83c0,-272.99 -222.1,-495.09 -495.09,-495.09zm-2614.06 633.71l2217.99 0c54.68,0 99.02,-44.34 99.02,-99.02l118.82 0 0 3314.83 -2653.81 0 0 -3314.83 118.96 0c0,54.68 44.34,99.02 99.02,99.02zm99.02 -554.5c0,-54.6 44.42,-99.02 99.02,-99.02l594.1 0c54.68,0 99.02,-44.34 99.02,-99.02 0,-120.12 97.72,-217.84 217.84,-217.84 120.12,0 217.84,97.72 217.84,217.84 0,54.68 44.34,99.02 99.02,99.02l594.1 0c54.6,0 99.02,44.42 99.02,99.02l0 356.46 -2019.96 0 0 -356.46zm2812.1 3960.7c0,163.8 -133.26,297.06 -297.06,297.06l-3010.13 0c-163.8,0 -297.06,-133.26 -297.06,-297.06l0 -3544.83c0,-163.8 133.26,-297.05 297.06,-297.05l297.05 0 0 138.62 -217.98 0c-54.68,0 -99.02,44.34 -99.02,99.02l0 3512.87c0,54.68 44.34,99.02 99.02,99.02l2851.85 0c54.68,0 99.02,-44.34 99.02,-99.02l0 -3512.87c0,-54.68 -44.34,-99.02 -99.02,-99.02l-217.84 0 0 -138.62 297.05 0c163.8,0 297.06,133.26 297.06,297.05l0 3544.83z"/>
   <path class="fil5" d="M8105.09 1601.81l-339.14 0c-152.19,0 -276.01,123.82 -276.01,276.01l0 3862.93c0,13.07 2.59,26.02 7.63,38.08l346.56 831.75c15.38,36.91 51.42,60.94 91.39,60.94 39.97,0 76.03,-24.04 91.39,-60.94l346.56 -831.75c5.03,-12.06 7.63,-25 7.63,-38.08l0 -3862.93c0,-152.19 -123.82,-276.01 -276.01,-276.01zm-417.11 4039.92l0 -2871.51 148.53 0 0 1016.58c0,54.68 44.34,99.02 99.02,99.02 54.68,0 99.02,-44.34 99.02,-99.02l0 -1016.58 148.53 0 0 2871.51 -495.09 0zm0 -3069.55l0 -138.63 495.09 0 0 138.63 -495.09 0zm77.98 -772.34l339.14 0c42.99,0 77.98,34.98 77.98,77.98l0 357.7 -495.09 0 0 -357.7c0,-42.99 34.98,-77.98 77.98,-77.98zm169.57 4515.2l-198.04 -475.28 396.07 0 -198.04 475.28z"/>
   <path class="fil5" d="M7935.52 4113.3c-26.04,0 -51.59,10.59 -70.01,29.01 -18.42,18.42 -29.01,43.96 -29.01,70 0,26.04 10.59,51.59 29.01,70.01 18.42,18.41 43.96,29.01 70.01,29.01 26.04,0 51.59,-10.59 70,-29.01 18.42,-18.42 29.02,-43.96 29.02,-70.01 0,-26.04 -10.59,-51.59 -29.02,-70 -18.41,-18.42 -43.96,-29.01 -70,-29.01z"/>
   <path class="fil5" d="M4527.14 3800.01l1564.48 0c54.68,0 99.02,-44.34 99.02,-99.02 0,-54.68 -44.34,-99.02 -99.02,-99.02l-1564.48 0c-54.68,0 -99.02,44.34 -99.02,99.02 0,54.68 44.34,99.02 99.02,99.02z"/>
   <path class="fil5" d="M4527.14 4314.9l1568.68 0c54.68,0 99.02,-44.34 99.02,-99.02 0,-54.68 -44.34,-99.02 -99.02,-99.02l-1568.68 0c-54.68,0 -99.02,44.34 -99.02,99.02 0,54.68 44.34,99.02 99.02,99.02z"/>
   <path class="fil5" d="M4527.14 3285.11l1560.27 0c54.68,0 99.02,-44.34 99.02,-99.02 0,-54.68 -44.34,-99.02 -99.02,-99.02l-1560.27 0c-54.68,0 -99.02,44.34 -99.02,99.02 0,54.68 44.34,99.02 99.02,99.02z"/>
   <path class="fil5" d="M6091.62 5245.67l-780.07 0c-54.68,0 -99.02,44.34 -99.02,99.02 0,54.68 44.34,99.02 99.02,99.02l780.07 0c54.68,0 99.02,-44.34 99.02,-99.02 0,-54.68 -44.33,-99.02 -99.02,-99.02z"/>
   <path class="fil5" d="M6095.77 4631.76c-26.05,0 -51.59,10.59 -69.92,29.01 -18.52,18.42 -29.1,43.96 -29.1,70.01 0,26.04 10.59,51.59 29.1,70 18.42,18.42 43.86,29.02 69.92,29.02 26.14,0 51.59,-10.59 70.09,-29.02 18.42,-18.41 29.02,-43.95 29.02,-70 0,-26.05 -10.59,-51.59 -29.02,-70.01 -18.41,-18.43 -43.95,-29.01 -70.09,-29.01z"/>
   <path class="fil5" d="M4527.14 4829.79l1117.41 0c54.68,0 99.02,-44.34 99.02,-99.02 0,-54.68 -44.34,-99.02 -99.02,-99.02l-1117.41 0c-54.68,0 -99.02,44.34 -99.02,99.02 0,54.68 44.34,99.02 99.02,99.02z"/>
   <path class="fil5" d="M5311.55 2247.11c-26.04,0 -51.59,10.59 -70.01,29.01 -18.42,18.42 -29.01,43.96 -29.01,70 0,26.05 10.59,51.59 29.01,70.01 18.42,18.41 43.96,29.01 70.01,29.01 26.04,0 51.59,-10.59 70,-29.01 18.42,-18.42 29.02,-43.96 29.02,-70.01 0,-26.04 -10.59,-51.59 -29.02,-70 -18.41,-18.42 -43.96,-29.01 -70,-29.01z"/>
  </g>
 </g>
</svg>
