<svg width="165" height="40" viewBox="0 0 165 40" fill="none" xmlns="http://www.w3.org/2000/svg">
<g clip-path="url(#clip0)">
<path d="M43.261 14.1758H59.9289V17.2527H53.3751V34.5496H49.7712V17.2527H43.2465V14.1758H43.261ZM59.2168 19.7976H62.2976V22.6445H62.3557C62.4574 22.2419 62.6463 21.8537 62.9224 21.4799C63.1985 21.106 63.5327 20.7466 63.9251 20.4447C64.3175 20.1283 64.7534 19.8839 65.233 19.6826C65.7125 19.4957 66.2066 19.395 66.7007 19.395C67.0785 19.395 67.3546 19.4094 67.4999 19.4238C67.6452 19.4382 67.7905 19.4669 67.9504 19.4813V22.6158C67.7179 22.5726 67.4854 22.5439 67.2383 22.5151C66.9913 22.4863 66.7588 22.472 66.5263 22.472C65.9741 22.472 65.4509 22.587 64.9569 22.8027C64.4628 23.0183 64.0414 23.349 63.6781 23.766C63.3148 24.1973 63.0241 24.715 62.8062 25.3476C62.5882 25.9802 62.4865 26.6991 62.4865 27.5187V34.5352H59.2023V19.7976H59.2168ZM83.0489 34.5496H79.8228V32.4935H79.7647C79.3578 33.2412 78.762 33.8307 77.9628 34.2764C77.1635 34.7221 76.3497 34.9522 75.5214 34.9522C73.5596 34.9522 72.1355 34.4777 71.2636 33.5144C70.3917 32.551 69.9558 31.0989 69.9558 29.1578V19.7976H73.2399V28.8415C73.2399 30.1355 73.487 31.0557 73.9956 31.5877C74.4897 32.1197 75.2017 32.3929 76.1027 32.3929C76.8002 32.3929 77.3669 32.2922 77.832 32.0766C78.297 31.8609 78.6748 31.5877 78.9509 31.2283C79.2415 30.8832 79.445 30.4518 79.5758 29.963C79.7066 29.4741 79.7647 28.9421 79.7647 28.367V19.812H83.0489V34.5496ZM88.6436 29.8192C88.7453 30.7682 89.1086 31.4296 89.7334 31.8178C90.3728 32.1916 91.1285 32.3929 92.0149 32.3929C92.3201 32.3929 92.6689 32.3641 93.0612 32.321C93.4536 32.2779 93.8314 32.1772 94.1656 32.0478C94.5144 31.9184 94.7905 31.7171 95.023 31.4583C95.241 31.1995 95.3427 30.8688 95.3282 30.4518C95.3136 30.0349 95.1538 29.6898 94.8631 29.431C94.5725 29.1578 94.2092 28.9565 93.7587 28.784C93.3083 28.6258 92.7996 28.482 92.2184 28.367C91.6371 28.252 91.0558 28.1226 90.46 27.9932C89.8497 27.8638 89.2539 27.6912 88.6872 27.5043C88.1204 27.3174 87.6118 27.0586 87.1613 26.7279C86.7108 26.4116 86.3476 25.9946 86.086 25.4914C85.8099 24.9881 85.6791 24.3699 85.6791 23.6222C85.6791 22.817 85.8825 22.1557 86.2749 21.6093C86.6673 21.0629 87.1759 20.6316 87.7717 20.3009C88.382 19.9702 89.0505 19.7401 89.7916 19.5963C90.5327 19.4669 91.2447 19.395 91.9132 19.395C92.6834 19.395 93.4245 19.4813 94.122 19.6395C94.8196 19.7976 95.4589 20.0564 96.0257 20.4303C96.5924 20.7897 97.0574 21.2642 97.4353 21.8393C97.8131 22.4145 98.0456 23.119 98.1473 23.9385H94.7178C94.558 23.1621 94.2092 22.6301 93.6425 22.3713C93.0757 22.0981 92.4218 21.9687 91.6952 21.9687C91.4627 21.9687 91.1866 21.9831 90.8669 22.0262C90.5472 22.0694 90.2566 22.1413 89.966 22.2419C89.6898 22.3426 89.4573 22.5007 89.2539 22.702C89.065 22.9033 88.9633 23.1621 88.9633 23.4928C88.9633 23.8954 89.1086 24.2117 89.3847 24.4562C89.6608 24.7006 90.0241 24.9019 90.4746 25.0744C90.925 25.2326 91.4337 25.3764 92.0149 25.4914C92.5962 25.6064 93.192 25.7358 93.8023 25.8652C94.3981 25.9946 94.9794 26.1672 95.5607 26.3541C96.1419 26.541 96.6506 26.7998 97.101 27.1305C97.5515 27.4612 97.9148 27.8638 98.1909 28.3526C98.467 28.8415 98.6123 29.4597 98.6123 30.1787C98.6123 31.0557 98.4089 31.789 98.002 32.4073C97.5951 33.0111 97.072 33.5144 96.4326 33.8882C95.7932 34.262 95.0666 34.5496 94.2819 34.7221C93.4972 34.8947 92.7125 34.981 91.9423 34.981C90.9977 34.981 90.1258 34.8803 89.3266 34.6646C88.5273 34.449 87.8298 34.1326 87.2485 33.7157C86.6673 33.2843 86.2022 32.7523 85.868 32.1197C85.5338 31.4871 85.3594 30.725 85.3303 29.848H88.6436V29.8192ZM99.4842 19.7976H101.969V15.3692H105.253V19.7976H108.218V22.2275H105.253V30.1068C105.253 30.4518 105.268 30.7394 105.297 30.9982C105.326 31.2426 105.399 31.4583 105.5 31.6308C105.602 31.8034 105.762 31.9328 105.98 32.0191C106.198 32.1053 106.474 32.1485 106.852 32.1485C107.084 32.1485 107.317 32.1485 107.549 32.1341C107.782 32.1197 108.014 32.0909 108.247 32.0334V34.5496C107.884 34.5927 107.52 34.6215 107.186 34.6646C106.837 34.7078 106.489 34.7221 106.125 34.7221C105.253 34.7221 104.556 34.6359 104.033 34.4777C103.51 34.3196 103.088 34.0751 102.797 33.7588C102.492 33.4425 102.303 33.0543 102.187 32.5798C102.085 32.1053 102.013 31.559 101.998 30.9551V22.2563H99.5133V19.7976H99.4842ZM110.543 19.7976H113.653V21.7962H113.711C114.176 20.9335 114.815 20.3296 115.644 19.9558C116.472 19.582 117.358 19.395 118.332 19.395C119.509 19.395 120.526 19.5963 121.398 20.0133C122.27 20.4159 122.997 20.9766 123.578 21.6955C124.159 22.4145 124.581 23.2484 124.871 24.1973C125.162 25.1463 125.307 26.1672 125.307 27.2455C125.307 28.2376 125.176 29.2009 124.915 30.1211C124.653 31.0557 124.261 31.8753 123.738 32.5942C123.215 33.3131 122.546 33.8738 121.732 34.3052C120.919 34.7365 119.974 34.9522 118.87 34.9522C118.39 34.9522 117.91 34.9091 117.431 34.8228C116.951 34.7365 116.486 34.5927 116.05 34.4058C115.614 34.2189 115.193 33.9745 114.83 33.6725C114.452 33.3706 114.147 33.0255 113.885 32.6373H113.827V39.9989H110.543V19.7976ZM122.023 27.188C122.023 26.5266 121.936 25.8796 121.761 25.247C121.587 24.6143 121.325 24.0679 120.977 23.5791C120.628 23.0902 120.192 22.702 119.683 22.4145C119.16 22.1269 118.564 21.9687 117.896 21.9687C116.515 21.9687 115.469 22.4432 114.772 23.3922C114.074 24.3411 113.725 25.6064 113.725 27.188C113.725 27.9357 113.813 28.6258 114.001 29.2585C114.19 29.8911 114.452 30.4375 114.83 30.8976C115.193 31.3577 115.629 31.7171 116.138 31.9759C116.646 32.2491 117.242 32.3785 117.91 32.3785C118.666 32.3785 119.291 32.2203 119.814 31.9184C120.337 31.6165 120.759 31.2139 121.093 30.7394C121.427 30.2505 121.674 29.7042 121.819 29.0859C121.95 28.4677 122.023 27.835 122.023 27.188ZM127.821 14.1758H131.105V17.2527H127.821V14.1758ZM127.821 19.7976H131.105V34.5496H127.821V19.7976ZM134.041 14.1758H137.325V34.5496H134.041V14.1758ZM147.395 34.9522C146.204 34.9522 145.143 34.7509 144.213 34.3627C143.283 33.9745 142.498 33.4281 141.844 32.7523C141.205 32.0622 140.711 31.2426 140.377 30.2937C140.042 29.3447 139.868 28.2951 139.868 27.1592C139.868 26.0377 140.042 25.0025 140.377 24.0536C140.711 23.1046 141.205 22.2851 141.844 21.5949C142.484 20.9048 143.283 20.3728 144.213 19.9846C145.143 19.5963 146.204 19.395 147.395 19.395C148.587 19.395 149.648 19.5963 150.578 19.9846C151.508 20.3728 152.293 20.9191 152.946 21.5949C153.586 22.2851 154.08 23.1046 154.414 24.0536C154.748 25.0025 154.923 26.0377 154.923 27.1592C154.923 28.2951 154.748 29.3447 154.414 30.2937C154.08 31.2426 153.586 32.0622 152.946 32.7523C152.307 33.4425 151.508 33.9745 150.578 34.3627C149.648 34.7509 148.587 34.9522 147.395 34.9522ZM147.395 32.3785C148.122 32.3785 148.761 32.2203 149.299 31.9184C149.837 31.6165 150.273 31.2139 150.621 30.725C150.97 30.2362 151.217 29.6754 151.392 29.0572C151.551 28.4389 151.639 27.8063 151.639 27.1592C151.639 26.5266 151.551 25.9083 151.392 25.2757C151.232 24.6431 150.97 24.0967 150.621 23.6078C150.273 23.119 149.837 22.7308 149.299 22.4288C148.761 22.1269 148.122 21.9687 147.395 21.9687C146.669 21.9687 146.029 22.1269 145.492 22.4288C144.954 22.7308 144.518 23.1334 144.169 23.6078C143.821 24.0967 143.573 24.6431 143.399 25.2757C143.239 25.9083 143.152 26.5266 143.152 27.1592C143.152 27.8063 143.239 28.4389 143.399 29.0572C143.559 29.6754 143.821 30.2362 144.169 30.725C144.518 31.2139 144.954 31.6165 145.492 31.9184C146.029 32.2347 146.669 32.3785 147.395 32.3785ZM155.882 19.7976H158.367V15.3692H161.651V19.7976H164.615V22.2275H161.651V30.1068C161.651 30.4518 161.665 30.7394 161.695 30.9982C161.724 31.2426 161.796 31.4583 161.898 31.6308C162 31.8034 162.16 31.9328 162.378 32.0191C162.596 32.1053 162.872 32.1485 163.249 32.1485C163.482 32.1485 163.714 32.1485 163.947 32.1341C164.179 32.1197 164.412 32.0909 164.645 32.0334V34.5496C164.281 34.5927 163.918 34.6215 163.584 34.6646C163.235 34.7078 162.886 34.7221 162.523 34.7221C161.651 34.7221 160.953 34.6359 160.43 34.4777C159.907 34.3196 159.486 34.0751 159.195 33.7588C158.89 33.4425 158.701 33.0543 158.585 32.5798C158.483 32.1053 158.41 31.559 158.396 30.9551V22.2563H155.911V19.7976H155.882Z" fill="white"/>
<path d="M39.4246 14.1768H24.3697L19.7196 0L15.0549 14.1768L0 14.1625L12.1921 22.9331L7.52743 37.0956L19.7196 28.3393L31.8971 37.0956L27.247 22.9331L39.4246 14.1768Z" fill="#00B67A"/>
<path d="M28.293 26.1399L27.2467 22.9336L19.7192 28.3398L28.293 26.1399Z" fill="#005128"/>
</g>
<defs>
<clipPath id="clip0">
<rect width="164.615" height="40" fill="white"/>
</clipPath>
</defs>
</svg>
