<?xml version="1.0" encoding="UTF-8"?>
<!DOCTYPE svg PUBLIC "-//W3C//DTD SVG 1.0//EN" "http://www.w3.org/TR/2001/REC-SVG-20010904/DTD/svg10.dtd">
<!-- Creator: CorelDRAW 2021 (64-Bit) -->
<svg xmlns="http://www.w3.org/2000/svg" xml:space="preserve" width="11.6929in" height="8.26772in" version="1.0" style="shape-rendering:geometricPrecision; text-rendering:geometricPrecision; image-rendering:optimizeQuality; fill-rule:evenodd; clip-rule:evenodd"
viewBox="0 0 11692.91 8267.72"
 xmlns:xlink="http://www.w3.org/1999/xlink"
 xmlns:xodm="http://www.corel.com/coreldraw/odm/2003">
 <defs>
  <style type="text/css">
   <![CDATA[
    .fil2 {fill:green;fill-rule:nonzero}
    .fil0 {fill:green;fill-rule:nonzero}
    .fil1 {fill:#F55E1E;fill-rule:nonzero}
   ]]>
  </style>
 </defs>
 <g id="Layer_x0020_1">
  <metadata id="CorelCorpID_0Corel-Layer"/>
  <g id="_1834631440912">
   <path class="fil0" d="M-155480.27 12958.34l-37893.35 0c-744.34,0 -1353.34,609 -1353.34,1353.34 0,744.33 609,1353.34 1353.34,1353.34l37893.35 -0.02c744.34,0 1353.34,-609 1353.34,-1353.34 0,-744.34 -609,-1353.34 -1353.34,-1353.34l0 0.02z"/>
   <path class="fil0" d="M-175780.29 -1928.32c-1488.67,0 -2706.68,1218 -2706.68,2706.68l0 9473.33 8120.01 -0.02 0 -9473.33c0,-1488.67 -1218,-2706.67 -2706.68,-2706.67l-2706.66 0.02z"/>
   <path class="fil0" d="M-187283.61 3485.01c-1488.67,0 -2706.68,1218 -2706.68,2706.68l0 4060 8120.01 -0.02 0 -4060c0,-1488.67 -1218,-2706.68 -2706.68,-2706.68l-2706.66 0.02z"/>
   <path class="fil0" d="M-169690.28 -4635l2706.66 0 0 14886.66 8120.01 0 0 -14886.66 2706.65 0c487.21,0 933.79,-257.13 1163.87,-676.66 243.59,-419.53 243.59,-933.79 0,-1353.34l-4736.67 -8295.93c-649.6,-1150.32 -1881.14,-1854.06 -3193.86,-1854.06 -1312.72,0 -2544.26,717.26 -3193.86,1854.06l-4736.67 8295.93c-243.59,419.53 -243.59,933.79 0,1353.34 243.59,419.55 690.2,676.66 1163.86,676.66l0.02 0z"/>
   <path class="fil1" d="M-183900.28 -3281.66c5968.19,0 10826.67,-4858.47 10826.67,-10826.67 0,-5968.2 -4858.47,-10826.67 -10826.67,-10826.67 -5968.2,0 -10826.67,4858.47 -10826.67,10826.67 0,5968.2 4858.47,10826.67 10826.67,10826.67zm906.73 -9473.35l-1799.94 0c-1745.81,0 -3153.26,-1421 -3153.26,-3153.26 0,-1583.39 1177.4,-2896.13 2706.68,-3112.66l0 -500.72c0,-744.34 609,-1353.34 1353.34,-1353.34 744.33,0 1353.34,609 1353.34,1353.34l0 446.61 1353.31 -0.02c744.34,0 1353.34,609 1353.34,1353.34 0,744.34 -609,1353.34 -1353.34,1353.34l-3613.41 0c-243.59,0 -446.61,203 -446.61,446.61 0,243.61 202.99,446.61 446.61,446.61l1799.94 -0.02c1745.81,0 3153.26,1421 3153.26,3153.26 0,1583.39 -1177.4,2896.13 -2706.68,3112.67l0 500.72c0,744.33 -609,1353.34 -1353.34,1353.34 -744.33,0 -1353.34,-609 -1353.34,-1353.34l0 -446.61 -1353.31 0.02c-744.34,0 -1353.34,-609 -1353.34,-1353.34 0,-744.34 609,-1353.34 1353.34,-1353.34l3613.41 0.02c243.59,0 446.61,-202.99 446.61,-446.61 0,-243.61 -202.99,-446.61 -446.61,-446.61z"/>
  </g>
  <g id="_1834631440768">
   <path class="fil2" d="M7394.06 3654.83c0,-210.44 -171.25,-381.69 -381.69,-381.69l-2544.63 0c-210.44,0 -381.69,171.25 -381.69,381.69l0 1399.55 3308.02 0 0 -1399.55zm-254.46 1145.08l-2799.09 0 0 -1145.08c0,-70.11 57,-127.23 127.23,-127.23l2544.63 0c70.23,0 127.23,57.12 127.23,127.23l0 1145.08z"/>
   <polygon class="fil2" points="4631.43,3999.32 4811.33,3819.42 5320.2,4328.28 5140.29,4508.19 "/>
   <polygon class="fil2" points="5394.82,3999.45 5574.72,3819.55 6083.59,4328.41 5903.68,4508.31 "/>
   <polygon class="fil2" points="6158.08,3999.45 6337.99,3819.55 6846.85,4328.41 6666.94,4508.31 "/>
   <path class="fil2" d="M8666.37 3782.06l0 -381.69c0,-165.66 -106.75,-305.61 -254.46,-358.28l0 -2568.05c0,-140.33 -114.13,-254.46 -254.46,-254.46l-4834.8 0c-140.34,0 -254.46,114.13 -254.46,254.46l0 2568.05c-147.72,52.67 -254.46,192.63 -254.46,358.28l0 381.69c-140.33,0 -254.46,114.13 -254.46,254.46l0 763.39 254.46 254.46 254.46 0 0 1272.31c0,140.34 114.13,254.46 254.46,254.46l254.46 0 0 254.46c0,140.33 114.13,254.46 254.46,254.46l254.46 0 0 636.15c0,210.44 171.25,381.69 381.69,381.69l254.46 0c210.44,0 381.69,-171.25 381.69,-381.69l0 -636.15 1272.32 0 0 636.15c0,210.44 171.25,381.69 381.69,381.69l254.46 0c210.44,0 381.69,-171.25 381.69,-381.69l0 -636.15 254.47 0c140.33,0 254.46,-114.13 254.46,-254.46l0 -254.46 254.46 0c140.34,0 254.46,-114.13 254.46,-254.46l0 -1272.31 254.46 0c140.34,0 254.46,-114.13 254.46,-254.46l0 -763.39c0,-140.34 -114.13,-254.46 -254.46,-254.46l0 0zm-2544.63 2035.7l-763.39 0 0 -254.46 763.39 0 0 254.46zm-763.39 254.46l763.39 0 0 254.46 -763.39 0 0 -254.46zm763.39 -763.39l-763.39 0c-140.33,0 -254.46,114.13 -254.46,254.46l0 763.39 -508.92 0 0 -254.46c0,-140.34 -114.13,-254.46 -254.46,-254.46l-508.93 0 0 -2417.4c0,-210.44 171.25,-381.69 381.69,-381.69l3053.56 0c210.44,0 381.69,171.25 381.69,381.69l0.13 2417.4 -509.05 0c-140.33,0 -254.46,114.13 -254.46,254.46l0 254.46 -508.93 0 0 -763.39c0,-140.33 -114.13,-254.46 -254.46,-254.46zm-2290.17 763.39l508.93 0 0 254.46 -508.93 0 0 -254.46zm1017.85 -3308.02l-254.46 0 0 -254.46 254.46 0 0 254.46zm1017.85 0l-254.46 0 0 -254.46 254.46 0 0 254.46zm1017.85 0l-254.46 0 0 -254.46 254.46 0 0 254.46zm254.46 3308.02l509.06 0 0 254.46 -509.06 0 0 -254.46zm127.23 -3308.02l-127.23 0 0 -254.46c0,-140.34 -114.13,-254.46 -254.46,-254.46l-254.46 0c-140.34,0 -254.46,114.13 -254.46,254.46l0 254.46 -254.46 0 0 -254.46c0,-140.34 -114.13,-254.46 -254.46,-254.46l-254.46 0c-140.34,0 -254.46,114.13 -254.46,254.46l0 254.46 -254.46 0 0 -254.46c0,-140.34 -114.13,-254.46 -254.46,-254.46l-254.46 0c-140.33,0 -254.46,114.13 -254.46,254.46l0 254.46 -127.24 0c-207,0 -389.46,100.9 -505.62,254.46l-385 0 0 -2035.7 4834.8 -0.01 0 2035.7 -385 0c-116.17,-153.57 -298.61,-254.46 -505.62,-254.46zm890.63 -2290.17l0 254.46 -4834.8 0 0 -254.46 4834.8 0zm-5089.26 4325.87l-254.46 0 0 -763.39 254.46 0 0 763.39zm254.46 1526.78l0 -2290.17c0,-140.33 -114.13,-254.46 -254.46,-254.46l0 -381.69c0,-70.11 57,-127.23 127.23,-127.23l394.55 -0c-8.4,41.09 -12.85,83.72 -12.85,127.23l0 2926.33 -254.46 0zm4326 508.93l-3817.07 0 0 -254.46 3817.07 0 0 254.46zm508.8 -2799.09l0 2290.17 -254.46 0 0 -2926.33c0,-43.52 -4.46,-86.13 -12.85,-127.23l394.54 0c70.23,0 127.23,57.13 127.23,127.23l0 381.69c-140.34,0 -254.46,114.13 -254.46,254.46l0 0zm508.92 763.39l-254.46 0 0 -763.39 254.46 0 0 763.39z"/>
  </g>
 </g>
</svg>
